<svg width="48" height="48" viewBox="0 0 48 48" fill="none" xmlns="http://www.w3.org/2000/svg">
<rect width="48" height="48" fill="#C4F1F9"/>
<path d="M48 0H0V48H48V0Z" fill="#C4F1F9"/>
<path d="M12 13V35H36V13H12ZM20 30.4167H17V20.3333H20V30.4167ZM18.5 19.171C17.534 19.171 16.75 18.4468 16.75 17.554C16.75 16.6612 17.534 15.937 18.5 15.937C19.466 15.937 20.25 16.6612 20.25 17.554C20.25 18.4468 19.467 19.171 18.5 19.171ZM32 30.4167H29V25.2797C29 22.1923 25 22.4261 25 25.2797V30.4167H22V20.3333H25V21.9513C26.397 19.5807 32 19.4057 32 24.2209V30.4167Z" fill="#065666"/>
</svg>
